<?xml version="1.0" encoding="UTF-8" standalone="no"?>
<svg
   xmlns:dc="http://purl.org/dc/elements/1.1/"
   xmlns:cc="http://creativecommons.org/ns#"
   xmlns:rdf="http://www.w3.org/1999/02/22-rdf-syntax-ns#"
   xmlns:svg="http://www.w3.org/2000/svg"
   xmlns="http://www.w3.org/2000/svg"
   width="29.477188mm"
   height="16.777189mm"
   viewBox="0 0 104.44673 59.446735"
   id="svg2"
   version="1.1">
  <defs
     id="defs4" />
  <metadata
     id="metadata7">
    <rdf:RDF>
      <cc:Work
         rdf:about="">
        <dc:format>image/svg+xml</dc:format>
        <dc:type
           rdf:resource="http://purl.org/dc/dcmitype/StillImage" />
        <dc:title></dc:title>
      </cc:Work>
    </rdf:RDF>
  </metadata>
  <g
     id="layer1"
     transform="matrix(0.5,0,0,0.5,-0.27663422,-466.45773)">
    <circle
       style="fill:none;fill-opacity:1;stroke:#000000;stroke-width:2;stroke-linecap:round;stroke-linejoin:round;stroke-miterlimit:4;stroke-dasharray:none;stroke-opacity:1"
       id="path4138"
       cx="60"
       cy="992.36218"
       r="58.446732" />
    <circle
       style="fill:none;fill-opacity:1;stroke:#000000;stroke-width:2;stroke-linecap:round;stroke-linejoin:round;stroke-miterlimit:4;stroke-dasharray:none;stroke-opacity:1"
       id="path4138-2"
       cx="150"
       cy="992.36218"
       r="58.446732" />
    <path
       style="fill:#ff0000;fill-opacity:1;stroke:#ff0000;stroke-width:0.25253814;stroke-linecap:round;stroke-linejoin:round;stroke-miterlimit:4;stroke-dasharray:none;stroke-opacity:1"
       d="m 103.98609,1026.6446 c -6.199874,-8.3406 -9.975926,-18.0295 -11.094301,-28.46687 -0.222873,-2.07998 -0.227055,-9.49858 -0.0065,-11.55362 1.012761,-9.43699 4.067823,-17.99963 9.212901,-25.82161 0.99526,-1.51309 2.39502,-3.48039 2.81839,-3.96114 0.19143,-0.21737 3.31706,4.25818 4.88249,6.99119 10.77355,18.80891 10.00553,42.22105 -1.97579,60.23035 -0.68791,1.034 -2.78095,3.9218 -2.83414,3.9104 -0.0101,0 -0.46147,-0.6001 -1.00304,-1.3287 z"
       id="path4159" />
    <path
       style="fill:#ff0000;fill-opacity:1;stroke:#ff0000;stroke-width:0.35714287;stroke-linecap:round;stroke-linejoin:round;stroke-miterlimit:4;stroke-dasharray:none;stroke-opacity:1"
       d="M 53.926604,116.55639 C 40.21887,115.14168 28.03969,109.27953 18.471031,99.490736 15.806849,96.765261 14.047653,94.633806 12.009058,91.661363 2.5090661,77.809582 -0.37059408,59.933881 4.2853083,43.71562 7.0498506,34.085679 12.314538,25.308247 19.514951,18.324339 32.613233,5.6199043 50.570945,-0.03972306 68.658747,2.8359756 80.852804,4.7746543 92.282903,10.808464 100.9455,19.879761 c 1.09943,1.151298 1.99896,2.154516 1.99896,2.229373 0,0.07485 -0.68107,1.049529 -1.51349,2.165938 -4.933012,6.615984 -8.609375,14.913062 -10.275525,23.190548 -0.90243,4.483296 -1.127285,6.802746 -1.142555,11.785714 -0.02207,7.201911 0.834888,12.663145 3.00743,19.165873 2.169402,6.493334 4.574424,10.94559 9.72043,17.994781 0.21601,0.2959 0.16274,0.428009 -0.4842,1.200696 -1.1272,1.346318 -4.944722,4.973266 -6.818469,6.478076 -8.838603,7.09833 -19.559177,11.44232 -30.797191,12.47906 -2.27452,0.20984 -8.628171,0.20187 -10.714286,-0.0134 z"
       id="path4161"
       transform="translate(0.55326843,932.91545)" />
    <path
       style="fill:#ff0000;fill-opacity:1;stroke:#ff0000;stroke-width:0.35714287;stroke-linecap:round;stroke-linejoin:round;stroke-miterlimit:4;stroke-dasharray:none;stroke-opacity:1"
       d="m 143.9266,116.55639 c -11.68191,-1.20563 -22.19456,-5.62097 -31.27863,-13.13708 -1.89953,-1.57167 -6.66779,-6.34469 -6.66779,-6.674452 0,-0.110702 0.2706,-0.536227 0.60135,-0.945613 2.71019,-3.354616 5.97077,-8.976066 7.88918,-13.601482 2.10128,-5.066304 3.53273,-10.764409 4.21684,-16.785714 0.32089,-2.824449 0.26911,-9.810465 -0.0946,-12.761522 -1.30678,-10.603154 -5.23628,-20.51792 -11.37746,-28.707225 -0.67943,-0.906025 -1.23532,-1.741479 -1.23532,-1.856564 0,-0.388604 5.9662,-6.128647 8.03571,-7.731105 4.04316,-3.130693 8.00894,-5.5093737 12.37959,-7.4253046 18.65361,-8.1770506 40.36312,-5.8443171 56.73272,6.0960516 19.06607,13.907247 27.6808,37.773549 21.87595,60.605277 -3.82984,15.063565 -13.66632,27.918813 -27.35508,35.750223 -6.78266,3.88039 -15.00731,6.44984 -23.00818,7.18794 -2.27452,0.20984 -8.62817,0.20187 -10.71429,-0.0134 z"
       id="path4163"
       transform="translate(0.55326843,932.91545)" />
  </g>
</svg>
