<?xml version="1.0" encoding="UTF-8" standalone="no"?>
<svg
   xmlns:dc="http://purl.org/dc/elements/1.1/"
   xmlns:cc="http://creativecommons.org/ns#"
   xmlns:rdf="http://www.w3.org/1999/02/22-rdf-syntax-ns#"
   xmlns:svg="http://www.w3.org/2000/svg"
   xmlns="http://www.w3.org/2000/svg"
   version="1.1"
   id="svg2"
   viewBox="0 0 104.44673 59.446735"
   height="16.777189mm"
   width="29.477188mm">
  <defs
     id="defs4" />
  <metadata
     id="metadata7">
    <rdf:RDF>
      <cc:Work
         rdf:about="">
        <dc:format>image/svg+xml</dc:format>
        <dc:type
           rdf:resource="http://purl.org/dc/dcmitype/StillImage" />
        <dc:title></dc:title>
      </cc:Work>
    </rdf:RDF>
  </metadata>
  <g
     transform="matrix(0.5,0,0,0.5,-0.27663422,-466.45773)"
     id="layer1">
    <circle
       r="58.446732"
       cy="992.36218"
       cx="60"
       id="path4138"
       style="fill:none;fill-opacity:1;stroke:#000000;stroke-width:2;stroke-linecap:round;stroke-linejoin:round;stroke-miterlimit:4;stroke-dasharray:none;stroke-opacity:1" />
    <circle
       r="58.446732"
       cy="992.36218"
       cx="150"
       id="path4138-2"
       style="fill:none;fill-opacity:1;stroke:#000000;stroke-width:2;stroke-linecap:round;stroke-linejoin:round;stroke-miterlimit:4;stroke-dasharray:none;stroke-opacity:1" />
    <path
       id="path4159"
       d="m 103.98609,1026.6446 c -6.199874,-8.3406 -9.975926,-18.0295 -11.094301,-28.46687 -0.222873,-2.07998 -0.227055,-9.49858 -0.0065,-11.55362 1.012761,-9.43699 4.067823,-17.99963 9.212901,-25.82161 0.99526,-1.51309 2.39502,-3.48039 2.81839,-3.96114 0.19143,-0.21737 3.31706,4.25818 4.88249,6.99119 10.77355,18.80891 10.00553,42.22105 -1.97579,60.23035 -0.68791,1.034 -2.78095,3.9218 -2.83414,3.9104 -0.0101,0 -0.46147,-0.6001 -1.00304,-1.3287 z"
       style="fill:#ff0000;fill-opacity:1;stroke:#ff0000;stroke-width:0.25253814;stroke-linecap:round;stroke-linejoin:round;stroke-miterlimit:4;stroke-dasharray:none;stroke-opacity:1" />
    <path
       transform="translate(0.55326843,932.91545)"
       id="path4163"
       d="m 143.9266,116.55639 c -11.68191,-1.20563 -22.19456,-5.62097 -31.27863,-13.13708 -1.89953,-1.57167 -6.66779,-6.34469 -6.66779,-6.674452 0,-0.110702 0.2706,-0.536227 0.60135,-0.945613 2.71019,-3.354616 5.97077,-8.976066 7.88918,-13.601482 2.10128,-5.066304 3.53273,-10.764409 4.21684,-16.785714 0.32089,-2.824449 0.26911,-9.810465 -0.0946,-12.761522 -1.30678,-10.603154 -5.23628,-20.51792 -11.37746,-28.707225 -0.67943,-0.906025 -1.23532,-1.741479 -1.23532,-1.856564 0,-0.388604 5.9662,-6.128647 8.03571,-7.731105 4.04316,-3.130693 8.00894,-5.5093737 12.37959,-7.4253046 18.65361,-8.1770506 40.36312,-5.8443171 56.73272,6.0960516 19.06607,13.907247 27.6808,37.773549 21.87595,60.605277 -3.82984,15.063565 -13.66632,27.918813 -27.35508,35.750223 -6.78266,3.88039 -15.00731,6.44984 -23.00818,7.18794 -2.27452,0.20984 -8.62817,0.20187 -10.71429,-0.0134 z"
       style="fill:#ff0000;fill-opacity:1;stroke:#ff0000;stroke-width:0.35714287;stroke-linecap:round;stroke-linejoin:round;stroke-miterlimit:4;stroke-dasharray:none;stroke-opacity:1" />
  </g>
</svg>
