
<svg xmlns="http://www.w3.org/2000/svg" version="1.1" xmlns:xlink="http://www.w3.org/1999/xlink" preserveAspectRatio="none" x="0px" y="0px" width="550px" height="400px" viewBox="0 0 550 400">
<defs>
<g id="Layer0_0_FILL">
<path fill="#CCCCCC" stroke="none" d="
M 183.7 305.5
L 183.7 335.5 273.7 335.5 273.7 305.5 183.7 305.5
M 363.7 335.5
L 363.7 305.5 273.7 305.5 273.7 335.5 363.7 335.5
M 363.7 305.5
L 363.7 335.5 453.7 335.5 453.7 305.5 363.7 305.5
M 93.7 305.5
L 93.7 335.5 183.7 335.5 183.7 305.5 93.7 305.5
M 3.7 305.5
L 3.7 335.5 93.7 335.5 93.7 305.5 3.7 305.5
M 453.7 305.5
L 453.7 335.5 543.7 335.5 543.7 305.5 453.7 305.5 Z"/>

<path fill="#FFCC66" stroke="none" d="
M 182 122
L 182 92 92 92 92 122 182 122
M 182 122
L 272 122 272 92 182 92 182 122
M 182 182
L 182 152 92 152 92 182 182 182
M 182 152
L 182 182 272 182 272 152 182 152
M 92 122
L 92 92 2 92 2 122 92 122
M 2 152
L 2 182 92 182 92 152 2 152
M 92 62
L 92 32 2 32 2 62 92 62
M 182 62
L 182 32 92 32 92 62 182 62
M 272 62
L 272 32 182 32 182 62 272 62 Z"/>

<path fill="#FFCC99" stroke="none" d="
M 182 152
L 182 122 92 122 92 152 182 152
M 182 122
L 182 152 272 152 272 122 182 122
M 2 122
L 2 152 92 152 92 122 2 122
M 92 92
L 92 62 2 62 2 92 92 92
M 182 92
L 182 62 92 62 92 92 182 92
M 272 92
L 272 62 182 62 182 92 272 92 Z"/>

<path fill="#00FFFF" stroke="none" d="
M 92 32
L 92 2 2 2 2 32 92 32
M 182 32
L 182 2 92 2 92 32 182 32
M 272 32
L 272 2 182 2 182 32 272 32 Z"/>
</g>

<path id="Layer0_0_1_STROKES" stroke="#000000" stroke-width="2" stroke-linejoin="round" stroke-linecap="round" fill="none" d="
M 363.7 305.5
L 363.7 335.5 453.7 335.5 453.7 305.5 363.7 305.5 273.7 305.5 273.7 335.5 363.7 335.5 363.7 365.5 453.7 365.5 453.7 335.5 543.7 335.5 543.7 305.5 453.7 305.5
M 363.7 365.5
L 363.7 395.5 453.7 395.5 453.7 365.5 543.7 365.5 543.7 335.5
M 543.7 365.5
L 543.7 395.5 453.7 395.5
M 2 32
L 2 2 92 2 182 2 272 2 272 32 272 62 272 92 272 122 272 152 272 182 182 182 92 182 2 182 2 152 2 122 2 92 2 62 2 32 92 32 92 2
M 182 2
L 182 32 272 32
M 182 62
L 182 92 272 92
M 182 32
L 182 62 272 62
M 182 182
L 182 152 182 122
M 182 152
L 272 152
M 272 122
L 182 122 182 92
M 182 122
L 92 122 92 152 182 152
M 92 62
L 92 92 182 92
M 92 32
L 92 62 182 62
M 92 152
L 92 182
M 92 92
L 92 122 2 122
M 2 62
L 92 62
M 2 92
L 92 92
M 2 152
L 92 152
M 3.7 335.5
L 3.7 305.5 93.7 305.5 183.7 305.5 273.7 305.5
M 363.7 395.5
L 273.7 395.5 183.7 395.5 93.7 395.5 3.7 395.5 3.7 365.5 3.7 335.5 93.7 335.5 93.7 305.5
M 183.7 395.5
L 183.7 365.5 93.7 365.5 93.7 395.5
M 93.7 335.5
L 93.7 365.5 3.7 365.5
M 183.7 305.5
L 183.7 335.5 273.7 335.5 273.7 365.5 363.7 365.5
M 183.7 335.5
L 183.7 365.5 273.7 365.5 273.7 395.5
M 93.7 335.5
L 183.7 335.5
M 92 32
L 182 32"/>
</defs>

<g transform="matrix( 1, 0, 0, 1, 0,0) ">
<use xlink:href="#Layer0_0_FILL"/>

<use xlink:href="#Layer0_0_1_STROKES"/>
</g>

<g transform="matrix( 1.125, 0, 0, 1, 34.05,6.25) ">
<clipPath id="Mask_Mask_1">
<rect x="-2" y="-2" width="27" height="25.5" fill="#FFFFFF" stroke="none"/>
</clipPath>

<text clip-path="url(#Mask_Mask_1)" writing-mode="lr"><tspan x="0" y="15.8" baseline-shift="0%" font-family="Courier New" font-weight="bold" font-size="19" fill="#000000" xml:space="preserve">id</tspan></text>
</g>

<g transform="matrix( 1.125, 0, 0, 1, 111.25,6.25) ">
<clipPath id="Mask_Mask_2">
<rect x="-2" y="-2" width="49.8" height="25.5" fill="#FFFFFF" stroke="none"/>
</clipPath>

<text clip-path="url(#Mask_Mask_2)" writing-mode="lr"><tspan x="0" y="15.8" baseline-shift="0%" font-family="Courier New" font-weight="bold" font-size="19" fill="#000000" xml:space="preserve">name</tspan></text>
</g>

<g transform="matrix( 1, 0, 0, 1, 187,6.25) ">
<clipPath id="Mask_Mask_3">
<rect x="-2" y="-2" width="84" height="25.5" fill="#FFFFFF" stroke="none"/>
</clipPath>

<text clip-path="url(#Mask_Mask_3)" writing-mode="lr"><tspan x="0" y="15.8" baseline-shift="0%" font-family="Courier New" font-weight="bold" font-size="19" fill="#000000" xml:space="preserve">country</tspan></text>
</g>

<g transform="matrix( 1, 0, 0, 1, 24.1,36.25) ">
<clipPath id="Mask_Mask_4">
<rect x="-2" y="-2" width="49.8" height="25.5" fill="#FFFFFF" stroke="none"/>
</clipPath>

<text clip-path="url(#Mask_Mask_4)" writing-mode="lr"><tspan x="0" y="15.8" baseline-shift="0%" font-family="Courier New" font-weight="bold" font-size="19" fill="#000000" xml:space="preserve">1039</tspan></text>
</g>

<g transform="matrix( 1, 0, 0, 1, 24.1,66.25) ">
<clipPath id="Mask_Mask_5">
<rect x="-2" y="-2" width="49.8" height="25.5" fill="#FFFFFF" stroke="none"/>
</clipPath>

<text clip-path="url(#Mask_Mask_5)" writing-mode="lr"><tspan x="0" y="15.8" baseline-shift="0%" font-family="Courier New" font-weight="bold" font-size="19" fill="#000000" xml:space="preserve">2027</tspan></text>
</g>

<g transform="matrix( 1, 0, 0, 1, 24.1,96.25) ">
<clipPath id="Mask_Mask_6">
<rect x="-2" y="-2" width="49.8" height="25.5" fill="#FFFFFF" stroke="none"/>
</clipPath>

<text clip-path="url(#Mask_Mask_6)" writing-mode="lr"><tspan x="0" y="15.8" baseline-shift="0%" font-family="Courier New" font-weight="bold" font-size="19" fill="#000000" xml:space="preserve">3012</tspan></text>
</g>

<g transform="matrix( 1, 0, 0, 1, 24.1,126.25) ">
<clipPath id="Mask_Mask_7">
<rect x="-2" y="-2" width="49.8" height="25.5" fill="#FFFFFF" stroke="none"/>
</clipPath>

<text clip-path="url(#Mask_Mask_7)" writing-mode="lr"><tspan x="0" y="15.8" baseline-shift="0%" font-family="Courier New" font-weight="bold" font-size="19" fill="#000000" xml:space="preserve">4093</tspan></text>
</g>

<g transform="matrix( 1, 0, 0, 1, 24.1,156.25) ">
<clipPath id="Mask_Mask_8">
<rect x="-2" y="-2" width="49.8" height="25.5" fill="#FFFFFF" stroke="none"/>
</clipPath>

<text clip-path="url(#Mask_Mask_8)" writing-mode="lr"><tspan x="0" y="15.8" baseline-shift="0%" font-family="Courier New" font-weight="bold" font-size="19" fill="#000000" xml:space="preserve">1385</tspan></text>
</g>

<g transform="matrix( 1, 0, 0, 1, 108.4,36.25) ">
<clipPath id="Mask_Mask_9">
<rect x="-2" y="-2" width="61.2" height="25.5" fill="#FFFFFF" stroke="none"/>
</clipPath>

<text clip-path="url(#Mask_Mask_9)" writing-mode="lr"><tspan x="0" y="15.8" baseline-shift="0%" font-family="Courier New" font-weight="bold" font-size="19" fill="#000000" xml:space="preserve">JIMMY</tspan></text>
</g>

<g transform="matrix( 1, 0, 0, 1, 119.8,156.25) ">
<clipPath id="Mask_Mask_10">
<rect x="-2" y="-2" width="38.4" height="25.5" fill="#FFFFFF" stroke="none"/>
</clipPath>

<text clip-path="url(#Mask_Mask_10)" writing-mode="lr"><tspan x="0" y="15.8" baseline-shift="0%" font-family="Courier New" font-weight="bold" font-size="19" fill="#000000" xml:space="preserve">VAN</tspan></text>
</g>

<g transform="matrix( 1, 0, 0, 1, 108.4,66.25) ">
<clipPath id="Mask_Mask_11">
<rect x="-2" y="-2" width="61.2" height="25.5" fill="#FFFFFF" stroke="none"/>
</clipPath>

<text clip-path="url(#Mask_Mask_11)" writing-mode="lr"><tspan x="0" y="15.8" baseline-shift="0%" font-family="Courier New" font-weight="bold" font-size="19" fill="#000000" xml:space="preserve">BILLY</tspan></text>
</g>

<g transform="matrix( 1, 0, 0, 1, 108.4,96.25) ">
<clipPath id="Mask_Mask_12">
<rect x="-2" y="-2" width="61.2" height="25.5" fill="#FFFFFF" stroke="none"/>
</clipPath>

<text clip-path="url(#Mask_Mask_12)" writing-mode="lr"><tspan x="0" y="15.8" baseline-shift="0%" font-family="Courier New" font-weight="bold" font-size="19" fill="#000000" xml:space="preserve">GEPAO</tspan></text>
</g>

<g transform="matrix( 1, 0, 0, 1, 102.7,126.25) ">
<clipPath id="Mask_Mask_13">
<rect x="-2" y="-2" width="72.6" height="25.5" fill="#FFFFFF" stroke="none"/>
</clipPath>

<text clip-path="url(#Mask_Mask_13)" writing-mode="lr"><tspan x="0" y="15.8" baseline-shift="0%" font-family="Courier New" font-weight="bold" font-size="19" fill="#000000" xml:space="preserve">YIFENG</tspan></text>
</g>

<g transform="matrix( 1, 0, 0, 1, 198.4,36.25) ">
<clipPath id="Mask_Mask_14">
<rect x="-2" y="-2" width="61.2" height="25.5" fill="#FFFFFF" stroke="none"/>
</clipPath>

<text clip-path="url(#Mask_Mask_14)" writing-mode="lr"><tspan x="0" y="15.8" baseline-shift="0%" font-family="Courier New" font-weight="bold" font-size="19" fill="#000000" xml:space="preserve">China</tspan></text>
</g>

<g transform="matrix( 1, 0, 0, 1, 215.5,66.25) ">
<clipPath id="Mask_Mask_15">
<rect x="-2" y="-2" width="27" height="25.5" fill="#FFFFFF" stroke="none"/>
</clipPath>

<text clip-path="url(#Mask_Mask_15)" writing-mode="lr"><tspan x="0" y="15.8" baseline-shift="0%" font-family="Courier New" font-weight="bold" font-size="19" fill="#000000" xml:space="preserve">US</tspan></text>
</g>

<g transform="matrix( 1, 0, 0, 1, 198.4,96.25) ">
<clipPath id="Mask_Mask_16">
<rect x="-2" y="-2" width="61.2" height="25.5" fill="#FFFFFF" stroke="none"/>
</clipPath>

<text clip-path="url(#Mask_Mask_16)" writing-mode="lr"><tspan x="0" y="15.8" baseline-shift="0%" font-family="Courier New" font-weight="bold" font-size="19" fill="#000000" xml:space="preserve">China</tspan></text>
</g>

<g transform="matrix( 1, 0, 0, 1, 187,156.25) ">
<clipPath id="Mask_Mask_17">
<rect x="-2" y="-2" width="84" height="25.5" fill="#FFFFFF" stroke="none"/>
</clipPath>

<text clip-path="url(#Mask_Mask_17)" writing-mode="lr"><tspan x="0" y="15.8" baseline-shift="0%" font-family="Courier New" font-weight="bold" font-size="19" fill="#000000" xml:space="preserve">Vietnam</tspan></text>
</g>

<g transform="matrix( 1.125, 0, 0, 1, 292.95,309.75) ">
<clipPath id="Mask_Mask_18">
<rect x="-2" y="-2" width="49.8" height="25.5" fill="#FFFFFF" stroke="none"/>
</clipPath>

<text clip-path="url(#Mask_Mask_18)" writing-mode="lr"><tspan x="0" y="15.8" baseline-shift="0%" font-family="Courier New" font-weight="bold" font-size="19" fill="#000000" xml:space="preserve">id_1</tspan></text>
</g>

<g transform="matrix( 1.125, 0, 0, 1, 370.1,309.75) ">
<clipPath id="Mask_Mask_19">
<rect x="-2" y="-2" width="72.6" height="25.5" fill="#FFFFFF" stroke="none"/>
</clipPath>

<text clip-path="url(#Mask_Mask_19)" writing-mode="lr"><tspan x="0" y="15.8" baseline-shift="0%" font-family="Courier New" font-weight="bold" font-size="19" fill="#000000" xml:space="preserve">name_1</tspan></text>
</g>

<g transform="matrix( 1, 0, 0, 1, 449.95,309.75) ">
<clipPath id="Mask_Mask_20">
<rect x="-2" y="-2" width="106.8" height="25.5" fill="#FFFFFF" stroke="none"/>
</clipPath>

<text clip-path="url(#Mask_Mask_20)" writing-mode="lr"><tspan x="0" y="15.8" baseline-shift="0%" font-family="Courier New" font-weight="bold" font-size="19" fill="#000000" xml:space="preserve">country_1</tspan></text>
</g>

<g transform="matrix( 1, 0, 0, 1, 194.35,116.75) ">
<clipPath id="Mask_Mask_21">
<rect x="-2" y="-2" width="10.2" height="25.5" fill="#FFFFFF" stroke="none"/>
</clipPath>

<text clip-path="url(#Mask_Mask_21)" writing-mode="lr"/>
</g>

<g transform="matrix( 1, 0, 0, 1, 187,126.25) ">
<clipPath id="Mask_Mask_22">
<rect x="-2" y="-2" width="84" height="25.5" fill="#FFFFFF" stroke="none"/>
</clipPath>

<text clip-path="url(#Mask_Mask_22)" writing-mode="lr"><tspan x="0" y="15.8" baseline-shift="0%" font-family="Courier New" font-weight="bold" font-size="19" fill="#000000" xml:space="preserve">vietnam</tspan></text>
</g>

<g transform="matrix( 1.125, 0, 0, 1, 35.75,309.75) ">
<clipPath id="Mask_Mask_23">
<rect x="-2" y="-2" width="27" height="25.5" fill="#FFFFFF" stroke="none"/>
</clipPath>

<text clip-path="url(#Mask_Mask_23)" writing-mode="lr"><tspan x="0" y="15.8" baseline-shift="0%" font-family="Courier New" font-weight="bold" font-size="19" fill="#000000" xml:space="preserve">id</tspan></text>
</g>

<g transform="matrix( 1.125, 0, 0, 1, 112.95,309.75) ">
<clipPath id="Mask_Mask_24">
<rect x="-2" y="-2" width="49.8" height="25.5" fill="#FFFFFF" stroke="none"/>
</clipPath>

<text clip-path="url(#Mask_Mask_24)" writing-mode="lr"><tspan x="0" y="15.8" baseline-shift="0%" font-family="Courier New" font-weight="bold" font-size="19" fill="#000000" xml:space="preserve">name</tspan></text>
</g>

<g transform="matrix( 1, 0, 0, 1, 188.7,309.75) ">
<clipPath id="Mask_Mask_25">
<rect x="-2" y="-2" width="84" height="25.5" fill="#FFFFFF" stroke="none"/>
</clipPath>

<text clip-path="url(#Mask_Mask_25)" writing-mode="lr"><tspan x="0" y="15.8" baseline-shift="0%" font-family="Courier New" font-weight="bold" font-size="19" fill="#000000" xml:space="preserve">country</tspan></text>
</g>

<g transform="matrix( 1, 0, 0, 1, 25.8,339.75) ">
<clipPath id="Mask_Mask_26">
<rect x="-2" y="-2" width="49.8" height="25.5" fill="#FFFFFF" stroke="none"/>
</clipPath>

<text clip-path="url(#Mask_Mask_26)" writing-mode="lr"><tspan x="0" y="15.8" baseline-shift="0%" font-family="Courier New" font-weight="bold" font-size="19" fill="#000000" xml:space="preserve">1039</tspan></text>
</g>

<g transform="matrix( 1, 0, 0, 1, 25.8,369.75) ">
<clipPath id="Mask_Mask_27">
<rect x="-2" y="-2" width="49.8" height="25.5" fill="#FFFFFF" stroke="none"/>
</clipPath>

<text clip-path="url(#Mask_Mask_27)" writing-mode="lr"><tspan x="0" y="15.8" baseline-shift="0%" font-family="Courier New" font-weight="bold" font-size="19" fill="#000000" xml:space="preserve">1385</tspan></text>
</g>

<g transform="matrix( 1, 0, 0, 1, 110.1,339.75) ">
<clipPath id="Mask_Mask_28">
<rect x="-2" y="-2" width="61.2" height="25.5" fill="#FFFFFF" stroke="none"/>
</clipPath>

<text clip-path="url(#Mask_Mask_28)" writing-mode="lr"><tspan x="0" y="15.8" baseline-shift="0%" font-family="Courier New" font-weight="bold" font-size="19" fill="#000000" xml:space="preserve">JIMMY</tspan></text>
</g>

<g transform="matrix( 1, 0, 0, 1, 380.1,339.75) ">
<clipPath id="Mask_Mask_29">
<rect x="-2" y="-2" width="61.2" height="25.5" fill="#FFFFFF" stroke="none"/>
</clipPath>

<text clip-path="url(#Mask_Mask_29)" writing-mode="lr"><tspan x="0" y="15.8" baseline-shift="0%" font-family="Courier New" font-weight="bold" font-size="19" fill="#000000" xml:space="preserve">GEPAO</tspan></text>
</g>

<g transform="matrix( 1, 0, 0, 1, 295.8,339.75) ">
<clipPath id="Mask_Mask_30">
<rect x="-2" y="-2" width="49.8" height="25.5" fill="#FFFFFF" stroke="none"/>
</clipPath>

<text clip-path="url(#Mask_Mask_30)" writing-mode="lr"><tspan x="0" y="15.8" baseline-shift="0%" font-family="Courier New" font-weight="bold" font-size="19" fill="#000000" xml:space="preserve">3012</tspan></text>
</g>

<g transform="matrix( 1, 0, 0, 1, 121.5,369.75) ">
<clipPath id="Mask_Mask_31">
<rect x="-2" y="-2" width="38.4" height="25.5" fill="#FFFFFF" stroke="none"/>
</clipPath>

<text clip-path="url(#Mask_Mask_31)" writing-mode="lr"><tspan x="0" y="15.8" baseline-shift="0%" font-family="Courier New" font-weight="bold" font-size="19" fill="#000000" xml:space="preserve">VAN</tspan></text>
</g>

<g transform="matrix( 1, 0, 0, 1, 200.1,339.75) ">
<clipPath id="Mask_Mask_32">
<rect x="-2" y="-2" width="61.2" height="25.5" fill="#FFFFFF" stroke="none"/>
</clipPath>

<text clip-path="url(#Mask_Mask_32)" writing-mode="lr"><tspan x="0" y="15.8" baseline-shift="0%" font-family="Courier New" font-weight="bold" font-size="19" fill="#000000" xml:space="preserve">China</tspan></text>
</g>

<g transform="matrix( 1, 0, 0, 1, 188.7,369.75) ">
<clipPath id="Mask_Mask_33">
<rect x="-2" y="-2" width="84" height="25.5" fill="#FFFFFF" stroke="none"/>
</clipPath>

<text clip-path="url(#Mask_Mask_33)" writing-mode="lr"><tspan x="0" y="15.8" baseline-shift="0%" font-family="Courier New" font-weight="bold" font-size="19" fill="#000000" xml:space="preserve">vietnam</tspan></text>
</g>

<g transform="matrix( 1, 0, 0, 1, 295.8,369.75) ">
<clipPath id="Mask_Mask_34">
<rect x="-2" y="-2" width="49.8" height="25.5" fill="#FFFFFF" stroke="none"/>
</clipPath>

<text clip-path="url(#Mask_Mask_34)" writing-mode="lr"><tspan x="0" y="15.8" baseline-shift="0%" font-family="Courier New" font-weight="bold" font-size="19" fill="#000000" xml:space="preserve">4093</tspan></text>
</g>

<g transform="matrix( 1, 0, 0, 1, 374.4,369.75) ">
<clipPath id="Mask_Mask_35">
<rect x="-2" y="-2" width="72.6" height="25.5" fill="#FFFFFF" stroke="none"/>
</clipPath>

<text clip-path="url(#Mask_Mask_35)" writing-mode="lr"><tspan x="0" y="15.8" baseline-shift="0%" font-family="Courier New" font-weight="bold" font-size="19" fill="#000000" xml:space="preserve">YIFENG</tspan></text>
</g>

<g transform="matrix( 1, 0, 0, 1, 458.65,369.75) ">
<clipPath id="Mask_Mask_36">
<rect x="-2" y="-2" width="84" height="25.5" fill="#FFFFFF" stroke="none"/>
</clipPath>

<text clip-path="url(#Mask_Mask_36)" writing-mode="lr"><tspan x="0" y="15.8" baseline-shift="0%" font-family="Courier New" font-weight="bold" font-size="19" fill="#000000" xml:space="preserve">vietnam</tspan></text>
</g>

<g transform="matrix( 1, 0, 0, 1, 470.05,339.75) ">
<clipPath id="Mask_Mask_37">
<rect x="-2" y="-2" width="61.2" height="25.5" fill="#FFFFFF" stroke="none"/>
</clipPath>

<text clip-path="url(#Mask_Mask_37)" writing-mode="lr"><tspan x="0" y="15.8" baseline-shift="0%" font-family="Courier New" font-weight="bold" font-size="19" fill="#000000" xml:space="preserve">China</tspan></text>
</g>

<g transform="matrix( 1, 0, 0, 1, 295.8,88.25) ">
<clipPath id="Mask_Mask_38">
<rect x="-2" y="-2" width="238.2" height="38" fill="#FFFFFF" stroke="none"/>
</clipPath>

<text clip-path="url(#Mask_Mask_38)" writing-mode="lr"><tspan x="0" y="25" baseline-shift="0%" font-family="Courier New" font-weight="bold" font-size="30" fill="#000000" xml:space="preserve">Table student</tspan></text>
</g>

<g transform="matrix( 1, 0, 0, 1, 219.6,259.15) ">
<clipPath id="Mask_Mask_39">
<rect x="-2" y="-2" width="112.2" height="38" fill="#FFFFFF" stroke="none"/>
</clipPath>

<text clip-path="url(#Mask_Mask_39)" writing-mode="lr"><tspan x="0" y="25" baseline-shift="0%" font-family="Courier New" font-weight="bold" font-size="30" fill="#000000" xml:space="preserve">Result</tspan></text>
</g>
</svg>
